<svg width="20" height="20" viewBox="0 0 20 20" fill="none" xmlns="http://www.w3.org/2000/svg">
<g clip-path="url(#clip0_3847_110101)">
<circle cx="10" cy="10" r="10" fill="#A1ABBD"/>
<path fill-rule="evenodd" clip-rule="evenodd" d="M12.345 19.723C11.5928 19.9038 10.8076 19.9995 10 19.9995C9.20064 19.9995 8.42319 19.9057 7.67804 19.7285C7.67757 19.6283 7.67703 19.5149 7.67644 19.3923C7.67297 18.6716 7.66797 17.6345 7.66797 17.1092C5.31251 17.5538 4.70314 16.5205 4.51564 15.9798C4.30759 15.454 3.97778 14.988 3.55471 14.6221C3.22659 14.4419 2.75784 13.9973 3.54298 13.9853C3.84278 14.0187 4.13032 14.1256 4.38124 14.2971C4.63215 14.4686 4.83905 14.6996 4.98439 14.9705C5.11261 15.2067 5.28503 15.4146 5.49175 15.5823C5.69848 15.7501 5.93545 15.8743 6.1891 15.948C6.44274 16.0217 6.70808 16.0433 6.96989 16.0116C7.2317 15.98 7.48484 15.8957 7.71482 15.7635C7.75541 15.2749 7.96781 14.818 8.31249 14.4779C6.22657 14.2376 4.0469 13.4086 4.0469 9.73195C4.03372 8.77665 4.37754 7.85238 5.00783 7.1487C4.72122 6.31842 4.75475 5.40726 5.10158 4.60149C5.10158 4.60149 5.8867 4.34916 7.67968 5.58673C9.21369 5.15416 10.8331 5.15416 12.3672 5.58673C14.1601 4.33715 14.9453 4.60149 14.9453 4.60149C15.2921 5.40725 15.3257 6.31843 15.039 7.1487C15.6712 7.85118 16.0153 8.77625 15.9999 9.73195C15.9999 13.4206 13.8085 14.2376 11.7226 14.4779C11.9464 14.7104 12.1187 14.9896 12.2279 15.2964C12.337 15.6032 12.3806 15.9306 12.3554 16.2562C12.3554 17.1119 12.3502 18.4097 12.3468 19.2776C12.3461 19.4439 12.3455 19.5944 12.345 19.723Z" fill="#09101C"/>
</g>
<defs>
<clipPath id="clip0_3847_110101">
<rect width="20" height="20" fill="white"/>
</clipPath>
</defs>
</svg>
